<svg version="1" xmlns="http://www.w3.org/2000/svg" width="613.333" height="613.333" viewBox="0 0 460.000000 460.000000"><path d="M6.6 22.5c.4.8 1.2 1.5 2 1.5 1.9 0 1.8-1.6-.2-2.4-2.2-.9-2.4-.8-1.8.9zM124.1 31.6c-.7 2.5-1 4.8-.8 5.1.3.2 1-1.7 1.6-4.3.7-2.5 1-4.8.8-5.1-.3-.2-1 1.7-1.6 4.3zM215.2 45.4c-2.3.8-4.9 1.9-5.7 2.6-.7.6-2.2 1-3.2.9-1-.2-2.8.2-3.9.9-1.2.6-2.4.8-2.8.5-.3-.3-.6-.1-.6.5 0 .5-1.9 1.5-4.2 2-2.4.6-6.4 1.7-9.1 2.5-2.8.9-4.9 1.1-5.3.6-.3-.6-1.2-.5-2.1.3-.9.7-1.8 1.2-2 1-1.1-.8-2.2 0-1.7 1.3.4.8.1 1.5-.5 1.5s-1.1.6-1.1 1.3c0 .8-2.6 2.1-6.2 3.2-9.1 2.6-13 4.5-13.5 6.6-.3 1-.9 1.6-1.4 1.4-.4-.3-1.7.3-2.9 1.5-1.1 1.1-2.6 2-3.3 2-1.6 0-10.7 8.3-10.7 9.7 0 .5-1.5 2.3-3.2 4-1.8 1.7-3.9 3.8-4.5 4.6-1.5 1.9-1.7 4.1-.3 3.2 1.8-1.1 1 .4-1.6 3-1.4 1.4-3.2 4.1-3.9 5.9-1.4 3.2-1.7 3.4-4.5 2.6-3.3-.9-4.4-.2-2.9 2 1.4 2.3 1.1 5-.6 5-.8 0-1.5-.5-1.5-1.1 0-.7-1.4-.8-4-.4-2.4.4-4 .3-4-.3 0-1.5 2.8-3.4 4-2.7.5.3 1 .1 1-.4 0-.6-.3-1.1-.7-1.1-3.5-.1-3.3-1.9 1.2-19 2.5-9.6 4.4-17.8 4.2-18.3-.1-.5-2.5 6.7-5.1 16.2-2.7 9.4-5.5 17.9-6.2 18.8-.7 1-1.4 2.6-1.4 3.5 0 1-.5 1.8-1.1 1.8-.5 0-.9-1-.7-2.3.3-2-.1-2.2-3.2-1.9-1.9.1-4.1.9-5 1.6-.8.7-2.7 1.6-4.3 2-2.8.7-5.5 2.5-9.2 6.3-1.2 1.3-2.5 2-2.8 1.6-1.2-1.2-.7-3.6 1-4.8 1.6-1.2 1.1-3.5-.8-3.5-.5 0-2.6 1.6-4.8 3.5-2.3 2.1-4.9 3.5-6.4 3.5-1.4 0-2.9.4-3.2 1-.3.5-1.3 1-2.2 1-1.2 0-1.4-.7-1-3 .4-1.7.2-3-.3-3-.6 0-1 .4-1 1 0 1.3-3.7 1.3-4.5 0-.8-1.3-7.8-.5-8.3 1-.6 1.7-4.1 1.1-6.2-1-1.2-1.2-2.5-1.8-2.9-1.5-.5.2-1.4-.2-2.1-1-1.8-2.1-3.5-1.9-5.3.7-1.4 2.3-1.5 2.3-4.5.5-3.5-2-6.8-2.2-10.1-.4-2.3 1.2-2.3 1.3-2.2 18.2.1 9.3.4 18 .8 19.2.3 1.4.1 2.3-.6 2.3S9 150.9 9 144.7c0-5-.3-14.3-.7-20.5L7.7 113l-2.4 3.5c-1.3 1.9-3 3.5-3.8 3.5-1.3 0-1.5 6.8-1.5 50.5V221h3c2.3 0 3 .4 3 2 0 2.4-1.3 2.6-3 .5-.7-.8-1.6-1.5-2.1-1.5S0 273.4 0 341v119h317.6l1.2-3.3c.7-1.8 1.2-4.2 1.2-5.3 0-1.1.5-2.5 1.1-3.1.8-.8.8-1.3 0-1.7-.6-.4-1.1-.1-1.1.6-.1 1.6-2.3-2.9-4.9-10l-2-5.4 3.7.5c5.2.6 15.7 2.7 22.2 4.2 3 .8 9.3 1.9 14 2.5 4.6.6 9.2 1.6 10.1 2.1 1 .5 2.9.9 4.4.9 1.4 0 2.8.7 3.1 1.5.4.8 1.3 1.5 2.1 1.5 1.5 0 12.1-6.1 18.2-10.5 1.9-1.4 4.5-2.5 5.9-2.5 1.4 0 3.4-.8 4.5-1.8 1.8-1.5 2-1.5 1.4-.1-.3.9-.2 2 .3 2.5s1.1 5.8 1.5 11.9c.3 6 .8 12 1.1 13.3l.4 2.2h54v-46.6c0-30.7-.3-46.3-1-45.9-1 .6-1.5-2-1.1-6.3.1-1.2-.3-2.2-.9-2.2-.5 0-1 .5-1 1.2 0 .6-1.1 2.6-2.6 4.5-1.4 1.9-2.2 3.9-1.8 4.6.4.6.4.9-.1.5-.4-.4-1.4-.3-2.1.3-1.6 1.3-6.1-.9-12.2-5.9-3.9-3.2-4.5-3.4-5.3-1.9-1.3 2.3-4.1 2.2-3.7-.1.2-.9 1.4-1.8 2.6-2 1.4-.2 2.2-.9 1.9-1.7-.3-.7-.1-3 .4-5.1.6-2.2 1.5-6.2 2-8.9.6-2.8 1.5-5.4 2-6 .5-.5.9-1.9.9-3.2 0-1.4.6-2.3 1.6-2.3 2.1 0 1.3-2-1.8-4.3-1.8-1.4-3.4-1.8-5.2-1.3-2.5.6-2.6.9-2.6 8.5 0 6.4-.3 8-1.6 8.5-2.1.8-1.8 1.2-3.8-5.7-1.9-6.5-3.1-7-9.4-3.8-8.3 4.2-36.1 13.6-49.2 16.5-20 4.5-47.5 7.5-72.5 7.7-6.6.1-12.8.1-13.9 0-1.5-.1-.7-1.4 3.6-6.4 16.7-19.3 25.8-33.7 29.2-46.3 3.2-11.6 4-13.9 5-15.4.6-.8 2-3.2 3.1-5.4l1.9-3.8 7.5.4c5.3.4 7.8 1 8.6 2.2 1.6 2.2 9 2.2 9.9 0 1.1-2.9.6-3.4-3.1-3.4-4.4 0-15.8-5.1-13-5.7 2-.5 2.3-2.2.5-2.5-.7-.1 3.8-.4 10.1-.8 10.8-.6 11.5-.7 13.5-3.3 5.2-6.5 6-1 1.3 9.3-1.4 3-2.9 6.9-3.3 8.5-.4 1.7-1 3.2-1.3 3.5-1 .8-4.1 9.3-3.6 9.8.2.3 3.6-.3 7.4-1.3 5-1.3 7.3-1.6 8.3-.8 2 1.6 7.8 2.7 7.8 1.4 0-.6-.4-1.1-1-1.1-.5 0-1-.7-1-1.5s-1.2-2.2-2.6-3.1c-3.8-2.5-8.9-10.5-8.6-13.4.2-1.4 1.3-3.3 2.4-4.3 1.9-1.6 2.2-1.6 3.8-.2 1 .9 1.9 1.2 2.1.6.3-.6 2.9-.7 7.8-.1 4 .6 7.6.8 8 .6.4-.3 3.7-.6 7.3-.7 5.8-.3 6.9-.7 8.5-2.8 1-1.4 2.6-3.3 3.6-4.3 3.6-3.7 3.8-3.7-28.7-5.9-15.8-1.1-38.5-.3-48.8 1.8-3.5.7-3.7-1.3-.7-5.1 2.4-3 6.6-5.5 12.4-7.3 5.4-1.7 7.5-1.6 9.2.4 1.3 1.7 1.3 1.7 1.1-.1-.3-1.6.7-2.2 5.7-3.4 6.2-1.6 7.7-2.6 6.8-4.8-.7-1.8 4.4-3.7 7.5-2.9 1.3.3 2.6 1.5 2.9 2.6.7 2.7 6.1 2.3 7.7-.6.6-1.1 1.7-2.9 2.4-4 1.2-1.8 1.2-1.6.7 1.7-.7 3.7-.6 3.8 2.1 3.7 1.6 0 6.3-.6 10.4-1.2l7.5-1.2v-6.8c0-3.7.3-6.7.6-6.7 1.1 0 1.9 2.9 1.9 6.5 0 4.9.9 6.8 2.6 5.4.8-.6 1.4-.7 1.4-.2 0 1.3 8.2 1.4 9.7.1.7-.6 1.3-2.1 1.3-3.4 0-3.3 1.8-3 2.2.3l.3 2.8 14-.4c10-.2 14.2-.7 14.7-1.6.4-.7 2.8-1.6 5.3-1.9 5.8-.9 5.7-2.2-.2-3.2l-4.8-.7 4.8-1c4.5-.9 4.7-1.1 4.7-4.3 0-3.3-.1-3.4-3.8-3.4-2.1 0-4.2-.3-4.6-.7-.3-.4-2.5-.8-4.9-.9-2.3-.2-5.1-.5-6.2-.7-1.8-.4-12.7-1.7-18-2.2-2.1-.2-3.1-2.6-2-5.3.5-1.3.8-1.3 1.4-.4.5.8 2.7 1.3 5.7 1.2 8.1-.1 9.5-.3 8.4-1.4-2.8-2.8 1.6-3.6 6.4-1.1 4.1 2.2 5.4 1.9 7.1-1.5 1.4-2.7 2.1-3 6-3h4.5V66.8l-6.1.4-6.2.3-1.6-4.3c-2.6-7.1-9.1-6.8-9.1.4 0 4.3-1.6 5.1-11.5 5.6l-8 .3-2.1-6c-2.8-7.7-4.5-7.8-5.9 0-1 6-1 6-5 6.7-2.2.4-6.1.7-8.7.7l-4.7.1-.7 5.6c-.5 4.6-1 5.7-3.1 6.5-3.5 1.3-14 1.1-16.4-.4-1.7-1-2.2-.9-3.3.5-.8 1.1-3.7 1.9-8.9 2.5-7.4.9-7.9.8-10.4-1.4-2.5-2.4-5-2.6-4.5-.3.1.6-.1 1-.5.8-.4-.2-2.3-1-4.1-1.7-2.5-1-3-1.6-2-2.2.9-.6.7-.9-.9-.9-1.3 0-2.3-.4-2.3-.9s-2.8-1.5-6.1-2.2c-4.6-1-6.4-1.9-7.2-3.6-1-2.2-4.7-4-10-4.9-1.5-.3-3.9-1.6-5.4-3-1.4-1.3-3.1-2.4-3.7-2.4-.6 0-2.4-.7-4.1-1.6-3.4-1.8-10.2-4.4-12.5-4.8-6.2-1.2-26.9-7.4-28.5-8.7-2.1-1.5-10.5-2.2-12-.9-.9.7-1.8 1-2.2.6-.3-.3 0-.6.8-.7.8 0 .3-.5-1.1-1-4.3-1.8-22-2.1-26.8-.5zM357 92.1c0 .5-1.5.9-3.2.9-2 0-2.8-.3-2.1-.8 1.8-1.1 5.3-1.2 5.3-.1zm40.6 2c1 1.7-1.3 3.6-2.7 2.2-1.2-1.2-.4-3.3 1.1-3.3.5 0 1.2.5 1.6 1.1zm10.4.9c0 1.3-.7 2-2 2-1.9 0-2.7-2-1.3-3.3 1.3-1.4 3.3-.6 3.3 1.3zm-48.3 10.6c-.3.3-1.2.4-1.9.1-.8-.3-.5-.6.6-.6 1.1-.1 1.7.2 1.3.5zm-265.5 8.9c2.1.8 1.1 6.5-1.1 6.5-2.4 0-4.1-2-4.1-4.7 0-2.3 2-3 5.2-1.8zM360 123c0 .5-.4 1-1 1-.5 0-1-.5-1-1 0-.6.5-1 1-1 .6 0 1 .4 1 1zm-142.5 5.8c-.3.3-1.1 0-1.8-.7-.9-1-.8-1.1.6-.5 1 .3 1.5.9 1.2 1.2zm-24.5 4.9c0 1.4.6 2.3 1.5 2.3s1.5-1 1.5-2.6.5-2.4 1.3-2.1c.6.2 1.2 1.4 1.1 2.6 0 1.4.5 2.1 1.8 2.1 1 0 1.8-.7 1.8-1.5 0-.9.9-1.5 2.4-1.5 1.3 0 3.1-.3 3.9-.6 1-.4 1.5.1 1.4 1.3-.2 1.4.6 1.9 3.2 2.1 2.1.2 3.1 0 2.7-.7-.4-.6-.1-.9.7-.6.7.3 2.2-.3 3.2-1.5 1.6-1.8 4.5-2.8 4.5-1.5 0 1-3.6 4-6.5 5.5l-3 1.4 2.8.4c3.5.4 6-.4 5.2-1.8-.4-.6.5-1 2.1-1 2.2 0 2.5-.2 1.4-1.5s-.7-1.5 2.4-1.5h4.4c.4 0 1.1 1.4 1.5 3.1.7 2.7 1.1 3 3.3 2.5 3.3-.9 3.2 1.5-.3 5.1-3.4 3.4-6 3.7-7.4 1.1-1-1.9-1.8-2-12.2-1.4l-11.1.6-3.9-3.1c-3.4-2.7-4.5-3.1-8.2-2.7-4.3.5-4.3.5-3.3-1.8 1.4-3 .6-3.9-2-2.3-1.2.8-2.6.9-3.8.4-1.6-.8-1.4-1 1.4-1.3 1.8-.2 3-.7 2.7-1.2-.3-.5.4-.8 1.5-.7 1.4.1 2 .8 2 2.4zm178.5-1.8c.3.5.1 1.2-.5 1.6-.5.3-1-.1-1-.9 0-1.8.6-2.1 1.5-.7zM240 134.5c0 .8-.4 1.5-1 1.5-.5 0-.7-.7-.4-1.5.4-.8.8-1.5 1-1.5.2 0 .4.7.4 1.5zm120.3-.1c.5 1.4-1 3.6-2.5 3.6-.4 0-.8-.8-.8-1.8 0-3.1 2.3-4.4 3.3-1.8zm-174.8 7c-1.2.9-2.6 1.1-3.5.6-.8-.5-2.2-.4-3.2.1-1.8 1-5.1.2-4.3-1.1.3-.4 2.5-1.1 5-1.4 2.5-.4 4.5-1.2 4.5-1.9 0-.6.7-.4 1.7.6 1.6 1.6 1.6 1.8-.2 3.1zm256.1 2c.7 4.3 0 5.6-3.2 5.6-2.1 0-2.4-.4-2.4-3.9 0-3.7.8-4.8 3.7-5 .7-.1 1.5 1.4 1.9 3.3zm12-.9c.3 1.4.3 3.2 0 4.1-.7 1.7-3.2 1.4-3-.4.1-.7.2-2.3.3-3.7.1-3.2 1.9-3.2 2.7 0zm-209.8 3c-.7 1.5-1.7 2.4-2.5 2.1-.7-.3-1.3-.1-1.3.4 0 .6-.7 1-1.6 1-1.1 0-1.4-.5-1-1.6.3-.9.6-1.9.6-2.4s1-1.1 2.3-1.3c4.7-.9 4.7-.9 3.5 1.8zM228 145c0 .5-.4 1-1 1-.5 0-1-.5-1-1 0-.6.5-1 1-1 .6 0 1 .4 1 1zm-54 1c0 .5-.8 1-1.7 1-1.5 0-1.6-.2-.3-1 1.9-1.2 2-1.2 2 0zm12.2 1c-.2.9.6 1.1 2.8.7 1.6-.4 3-.5 3-.3 0 .6-7.1 4.9-7.3 4.5-.2-.2-.9-1.2-1.6-2.1-1-1.4-1-2 .1-3.2 1.5-1.7 3.4-1.5 3 .4zm211.4 4.7c-1.2 1.3-2.5-1.3-1.9-3.7l.7-2.4.9 2.7c.5 1.6.6 3.1.3 3.4zm-218-.3c-.2 3.7.1 4.6 1.7 5 2.9.7 1.5 3.1-2.1 3.4-1.8.2-3.2.8-3.2 1.3 0 .6-.7.6-1.9 0-1-.6-2.1-.8-2.3-.5-1.1 1.1-5.7 1.4-6.3.4-.3-.5.1-1 .9-1 .9 0 1.6-.4 1.6-.9s1.5-1.2 3.3-1.6l3.2-.8-2.8-.4c-4-.6-2.3-2.3 2.3-2.3 3.7 0 6.2-1.4 3.9-2.2-.7-.2-.9-1.3-.5-2.6 1.2-3.7 2.5-2.4 2.2 2.2zm227.1-3.7c-.4.3-.2 1.2.4 2 .9 1 .7 1.3-.9 1.3-1.5 0-2-.6-1.9-2 .1-1.1.8-2 1.6-2s1.1.3.8.7zM176 150.9c0 1.2-3.9 2.5-4.7 1.7-.4-.3.1-.6 1.1-.6.9 0 1.4-.5 1.1-1-.3-.6.1-1 .9-1 .9 0 1.6.4 1.6.9zm56.1 1.4c-1 .9-1.1.8-.5-.6.3-1 .9-1.5 1.2-1.2.3.3 0 1.1-.7 1.8zm-34.8 1.4c-.7.2-1.3 1.1-1.3 1.9 0 2.4-12.4 1.5-12.8-.9-.3-1.5.5-1.7 7.5-1.6 4.3 0 7.2.3 6.6.6zM425 155c0 .5-.5 1-1.1 1-.5 0-.7-.5-.4-1 .3-.6.8-1 1.1-1 .2 0 .4.4.4 1zm-257 1c0 .5-.2 1-.4 1-.3 0-.8-.5-1.1-1-.3-.6-.1-1 .4-1 .6 0 1.1.4 1.1 1zm184 1.1c0 .5-.9.9-2 .9-1.9 0-2.6-1.1-1.4-2.3.8-.8 3.4.3 3.4 1.4zm9-1.2c0 1.4-1.8 2.3-3 1.6-.6-.4-.8-1.1-.5-1.6.8-1.2 3.5-1.2 3.5 0zm55 2.3c0 .9.4.8 1-.2.7-1.1 1-.6 1 2.2 0 4.2-1.1 5.2-4.6 4.4-1.8-.5-2.4-1.3-2.4-3.5 0-1.5.3-3.1.7-3.4 1.1-1.2 4.3-.8 4.3.5zm-257.3 3.4c-.3.3-1.2.4-1.9.1-.8-.3-.5-.6.6-.6 1.1-.1 1.7.2 1.3.5zm4.3-.2c0 .2-.7.9-1.5 1.6-1.2 1-1.5 1-1.5-.4 0-.9.7-1.6 1.5-1.6s1.5.2 1.5.4zm8 2.6c0 .5-.7 1-1.6 1-.9 0-1.4.6-1.1 1.2.6 1.7-4.2 1.6-6.8-.1-1.9-1.2-1.9-1.2.1-.8 1.2.2 3.2-.2 4.5-.9 2.9-1.6 4.9-1.8 4.9-.4zm-15.5 1.9c.3.5.1 1.2-.5 1.6-.6.4-.8 1.1-.5 1.6.4.5-.5 2-1.9 3.2-3.2 3-2.5 3.7 3.2 3.7 2.5 0 4.3.2 4 .6-.9.9-13 .6-13.9-.3-1-1 1.1-6.3 2.4-6.3.4 0 .7-.9.7-1.9 0-2.7 5.1-4.4 6.5-2.2zm-144.8 3.3c-.3.8-.6.5-.6-.6-.1-1.1.2-1.7.5-1.3.3.3.4 1.2.1 1.9zM351 172c0 .5-.4 1-1 1-.5 0-1-.5-1-1 0-.6.5-1 1-1 .6 0 1 .4 1 1zm-340.3 4.7c-.3 1-.5.2-.5-1.7s.2-2.7.5-1.8c.2 1 .2 2.6 0 3.5zm416.9-3.3c1 .8 1.6 1.8 1.1 2.2-.4.4-1.2.3-1.8-.3-.6-.6-2.4-.8-4.5-.3-2.5.6-3.4.5-3.4-.5 0-2.4 5.7-3.1 8.6-1.1zm-15.9 4.8c-.3.8-.6.5-.6-.6-.1-1.1.2-1.7.5-1.3.3.3.4 1.2.1 1.9zM101 178c0 .5-.5 1-1.1 1-.5 0-.7-.5-.4-1 .3-.6.8-1 1.1-1 .2 0 .4.4.4 1zm-90.3 7.2c-.2 1.3-.4.3-.4-2.2s.2-3.5.4-2.3c.2 1.3.2 3.3 0 4.5zm101.7-2.6c.9.3 1.6 1.4 1.6 2.4 0 1.3-.6 1.6-2.4 1.3-1.6-.3-3.6.3-5.5 1.7-3.4 2.4-3.6 2.2-2-1.4 1.6-3.3 5.3-5.2 8.3-4zm308 1c1.1.4 1.6 1.9 1.6 4.5 0 3.2-.3 3.9-2 3.9-1 0-3.6 1.1-5.6 2.5-2.6 1.8-4.1 2.2-4.8 1.5-.7-.7.1-2.1 2.7-4.5 2.1-1.9 3.6-3.9 3.2-4.4-.3-.5.2-1.7 1.1-2.5 1.8-1.8 1.7-1.8 3.8-1zm-409.7 9.1c-.3 1-.5.2-.5-1.7s.2-2.7.5-1.8c.2 1 .2 2.6 0 3.5zm128.3-.6c0 .7.7 1.7 1.7 2.4 1.7 1.3 1.1 5.1-.7 4-.6-.4-.7.6-.3 2.5.5 2.6.2 3.2-1.6 3.7-2.3.6-2.8 1.9-.8 2.6.6.3-.3.4-2.2.2-1.9-.2-4.2 0-5.2.6-1.2.6-2 .5-2.5-.3-.4-.6-.3-.9.2-.6.5.3 1.7-.3 2.6-1.3 1.2-1.2 1.3-1.9.5-2.3-.8-.3-.6-.5.3-.5 2-.1 4-4.6 4-8.8 0-2.6.4-3.3 2-3.3 1.1 0 2 .5 2 1.1zm-127.6 5.4c.3.8.1 1.5-.4 1.5-.6 0-1-.7-1-1.5s.2-1.5.4-1.5.6.7 1 1.5zm443.4.3c.2.7-.4 1.5-1.3 1.8-2 .8-2.7.1-1.9-2 .7-1.8 2.5-1.7 3.2.2zM52.5 202c.4.6-.7 1-2.4 1s-3.1-.5-3.1-1c0-.6 1.1-1 2.4-1 1.4 0 2.8.4 3.1 1zm92 0c.3.5.1 1-.4 1-.6 0-1.1-.5-1.1-1 0-.6.2-1 .4-1 .3 0 .8.4 1.1 1zm10.1 4.1c-1.3 1.9-1.3 2.4.1 4.6 1.4 2.2 1.4 2.5-.2 4.3-2.3 2.5-3 2.5-3.2 0-.1-1.1.2-1.8.6-1.6.5.3.6-.5.4-1.9-.3-1.3-1.2-2.6-2-2.9-1-.4-1.3-.2-1 .8.6 1.5-4 3-4.8 1.6-.8-1.3.6-4 2.1-4 .8 0 1.4-.4 1.4-.9 0-.8 1.9-1.4 6.8-2 1-.1 1 .4-.2 2zm289.1 2.8c1.3.3 2.2 1 2 1.6-.1.5-.6.8-1.2.6-.5-.2-2.9-.8-5.2-1.4-2.4-.6-4.3-1.4-4.3-1.8 0-.8 3.4-.4 8.7 1zm-329.3.6c-.4.8-.8 1.5-1 1.5-.2 0-.4-.7-.4-1.5s.4-1.5 1-1.5c.5 0 .7.7.4 1.5zm43.6-.5c0 .5-.2 1-.4 1-.3 0-.8-.5-1.1-1-.3-.6-.1-1 .4-1 .6 0 1.1.4 1.1 1zm-94 3.6c0 .8-.4 1.2-1 .9-.5-.3-1-1-1-1.6 0-.5.5-.9 1-.9.6 0 1 .7 1 1.6zm24.8.5c-.2.6-.8 1-1.3 1s-1.1-.4-1.3-1c-.2-.6.4-1.1 1.3-1.1s1.5.5 1.3 1.1zm35.8 3.6c-.9 5.9-1.5 8.6-2.5 11.8-.9 3-.9 3-1-1-.2-3.7-.3-3.9-1.6-2.1-1.4 1.8-1.5 1.8-2.1.1-.5-1.3.2-2.5 2.4-4.4 1.7-1.4 3.4-3.8 3.8-5.4.9-4 1.8-3.3 1 1zm22.5-1.9c-1.9.3-2.1.6-1 1.3 1.1.7 1.1.9-.3.9-1 0-1.8-.4-1.8-.8 0-1.6 2.3-3 3.9-2.4 1.2.5 1.1.8-.8 1zm1.9 4.2c0 .5-.4 1-1 1-.5 0-1-.5-1-1 0-.6.5-1 1-1 .6 0 1 .4 1 1zm237.5.3c1.1 0 5-.2 8.7-.3 7.6-.2 8.8.2 8.8 3.4 0 2.9-2.1 3.6-10.7 3.6-5.6 0-6.2-.2-6.5-2.3-.3-2-.8-2.2-5.4-1.9-5.1.4-7.2-.7-5.8-2.9.4-.7 2.1-.9 4.8-.4 2.2.5 5 .8 6.1.8zm-288.6 1.3c1.2 1-1.6 2.4-4.8 2.4-2 0-4.3.6-4.9 1.2-1 1-1.7 1-3.4-.1-1.7-1-2.5-1.1-4.4 0-2.8 1.5-4.3.5-2.7-1.9.8-1.3 2.4-1.7 6.6-1.7 3 0 5.8-.3 6.2-.7.6-.6 6.4 0 7.4.8zm161.6-.6c-.3.5-1.4 1-2.3.9-1.4 0-1.3-.2.3-.9 2.7-1.1 2.7-1.1 2 0zm-190.6 1.9c2.9 2.2 2.1 3.8-2.4 4.7-3.9.7-6.5-.7-6.5-3.6 0-3.3 5.2-3.9 8.9-1.1zm-47.2.7c.4 1.2-6.6 3.6-7.9 2.8-2-1.2-.6-3.3 2.5-3.7 4.1-.5 5-.3 5.4.9zM41 222c0 .5-1 1-2.2 1-1.3 0-3.4.3-4.8.6-2.2.4-2.1.3.5-1 3.6-1.7 6.5-2 6.5-.6zm44 5.4c0 .8-6.1 1.2-6.6.4-.3-.4 1.1-.8 3-.8 2 0 3.6.2 3.6.4zm93.7.2c-.3.3-1.2.4-1.9.1-.8-.3-.5-.6.6-.6 1.1-.1 1.7.2 1.3.5zm85.3 3.6c0 .5-.7.3-1.5-.6-.8-.8-1.5-1.8-1.5-2.2 0-.3.7-.1 1.5.6s1.5 1.7 1.5 2.2zm143.8-.8c.3 1.2-.1 1.7-1 1.4-.7-.3-1.5-1.3-1.6-2.2-.3-1.2.1-1.7 1-1.4.7.3 1.5 1.3 1.6 2.2zm-235.4 1.8c.6.4-.1.8-1.6.8-3.3 0-4.4-1.5-2.1-2.9 1.3-.7 1.9-.6 2.2.2.2.7.9 1.5 1.5 1.9zm5.4-1.2c1.4 0 1.5.2.2.9-1.8 1.2-3 .5-2.9-1.7 0-1.1.3-1.2.6-.5.2.7 1.2 1.3 2.1 1.3zm80.2-.5c.9 1.1.9 1.5.1 1.5-.7 0-.9.4-.6 1 1 1.6-2.5 1.2-4.1-.5-.9-.8-1.2-1.9-.9-2.5.9-1.5 4.1-1.2 5.5.5zm127.8 1.8c-.9.6-2 2.1-2.6 3.2-1 1.7-1.1 1.8-1.2.2 0-1.9 3.8-6.2 4.8-5.3.3.4-.1 1.2-1 1.9zm4.7-1.3c.3.5.1 1-.4 1-.6 0-1.1-.5-1.1-1 0-.6.2-1 .4-1 .3 0 .8.4 1.1 1zM85 232.5c1.7 2.1.9 2.6-2.8 1.9-4.5-.9-4.1-2.4.9-3.3.4 0 1.2.6 1.9 1.4zm178 1.6c0 .5-1 .9-2.1.9-1.8 0-1.9-.2-.9-1.5 1.2-1.5 3-1.2 3 .6zm5.8-.9c-.5 1.4-4.8 2.2-4.8.9 0-.8 1.7-1.6 4.3-2 .5 0 .7.4.5 1.1zm4.9 1.4c-.3.3-1.2.4-1.9.1-.8-.3-.5-.6.6-.6 1.1-.1 1.7.2 1.3.5zm117 4.1c-.4 1.7-.4 1.7-1.2 0-.4-.9-.4-2.5 0-3.5.8-1.6.8-1.6 1.2 0 .3 1 .3 2.6 0 3.5zm-281.8-.5c.5 1.3.7 2.5.5 2.7-.7.7-3.4-2.1-3.4-3.5 0-2.2 2-1.6 2.9.8zm-5.1 5.9c-1.8 1.1-2.3-.7-.6-2.5 1.1-1.2 1.3-1.2 1.6.1.2.9-.2 1.9-1 2.4zm218.9 1.6c-.3 1-.5.2-.5-1.7s.2-2.7.5-1.8c.2 1 .2 2.6 0 3.5zm-206.4-2.2c.1.5-.6 1.1-1.5 1.3-1.1.2-1.8-.3-1.8-1.3 0-1.7 3-1.8 3.3 0zM332 246c0 1.5-4.1 3.7-8.5 4.5-4.7.8-4.6.6 2-2.9 5.4-2.8 6.5-3.1 6.5-1.6zm-17.1 3.6c.9.8-7.5.2-9.4-.6-1.3-.6-.1-.7 3.5-.3 3 .3 5.7.7 5.9.9zm10.9 20.2c-.2 1.4-1.5 3.8-3 5.3-1.6 1.5-2.8 3.7-2.8 4.9 0 1.2-.4 1.9-.9 1.6-1.3-.9.3-8 2.8-12s4.4-3.9 3.9.2zm34.5 20.2c.4 1.7 0 2-2.9 2-3.6 0-4.2-.8-2.2-2.8 1.8-1.8 4.5-1.4 5.1.8zM224 334c0 .5-.7 1-1.5 1s-1.5-.5-1.5-1c0-.6.7-1 1.5-1s1.5.4 1.5 1zm4.4 2.2c.7.5.5.8-.5.8-1.8 0-3.2-2.4-2.1-3.5.4-.3.8 0 1.1.7.2.7.9 1.6 1.5 2zm-4.4 1.2c-.7.7-1.3.7-2 0-.6-.6-.3-1 1-1s1.6.4 1 1zm233.4 34.5c-.2.2-.4-.1-.4-.7 0-.7-.4-1.2-1-1.2-.5 0-1 .9-1 1.9 0 1.4-.5 1.8-2 1.4-1.2-.3-1.9-.8-1.8-1.2.2-.3 1.4-2.4 2.8-4.6l2.5-4 .6 4c.4 2.2.5 4.2.3 4.4zm-25.4-1.4c3 .3 6.2 1 7 1.6 1.3.8 1.2 1.1-.4 2.4-1.1.8-3.4 1.8-5.3 2.1-3.2.6-22.2-1.2-23.2-2.2-.9-.9 2.4-3.3 5.9-4.2 3.4-.9 4.7-.8 16 .3zm4 8.4c0 1.1-3.1 2.4-3.9 1.6-.3-.3.1-1 .9-1.5 1.9-1.2 3-1.2 3-.1zm-5.6 1.6c-.3.8-2.6 1.7-5.2 2.1-2.6.3-6.4 1-8.4 1.4-2.2.4-3.8.4-3.8-.1 0-1.8 7.6-4.7 12.7-4.8 4.2-.1 5.1.2 4.7 1.4zm-22.4-.1c0 .9-3 1.4-3.5.6-.4-.6.3-1 1.4-1 1.2 0 2.1.2 2.1.4zm-121 10.8c0 1.3-2.3.5-2.8-1-.2-.7.2-1 1.2-.6.9.3 1.6 1.1 1.6 1.6zm5.8.5c-1 .2-2.6.2-3.5 0-1-.3-.2-.5 1.7-.5s2.7.2 1.8.5zm-37.8 9.7c0 3.9-4.3 12.9-4.8 10.1-.3-1.1-.9-2.3-1.6-2.8-.8-.5-.7-1 .4-1.7 1-.6 1.1-1 .3-1-1.7 0-1.6-1.5.1-5.3.8-1.8 1.7-4.1 2.1-5.2.6-1.9.7-1.9 2 .5.8 1.4 1.4 3.8 1.5 5.4zm37.5-4.4c.3.6-.1.7-.9.4-1.8-.7-2.1-1.4-.7-1.4.6 0 1.3.4 1.6 1zm19.5 5.3c0 .5.8.6 1.8.3.9-.3 4.2-.1 7.2.5 3 .5 6.5 1 7.8 1 1.3-.1 3.2.4 4.2.9 1.3.7 2.7.6 4.5-.2 1.9-.8 3.1-.9 4.3-.1 2.2 1.3 6.2-.1 6.2-2.2 0-.8.6-1.5 1.4-1.5.9 0 1.2.7.9 2-.3 1.1 0 2 .6 2s1.1-.4 1.1-.9c0-1.1 3.9-2.5 4.7-1.7.3.3-.5 1-1.8 1.6-3.2 1.4-13.5 7.3-14.5 8.3-.4.4.2.7 1.4.7s2.2-.4 2.2-.8c0-1.7 16.4-8.2 20.8-8.2 1.3 0 2-.4 1.7-1-.4-.6 1-.9 3.7-.9l4.3.2-3.5.7c-1.9.4-2.7.8-1.8.9.9 0 2.1.9 2.7 1.8.7 1.4 2.3 1.7 8 1.7 4.3 0 6.8.3 6.4.9-.3.6-.1.7.5.3.7-.4 1.2-1.4 1.2-2.2 0-.8.9-1.4 2.1-1.4 1.5 0 1.9.4 1.5 1.6-.3.9-.6 2-.6 2.5s-.7.9-1.5.9c-1.7 0-2 1.6-.6 2.5.6.3 1.4-.3 2-1.2.9-1.7 1.1-1.6 2.7.5 1.4 2 1.7 2.1 2.7.8 1.1-1.3 1.5-1.3 3.5.4 1.7 1.4 2.3 3 2.5 7.1.2 5.1.1 5.2-4.3 8.5-2.5 1.8-5.1 3.3-5.8 3.3-.7.1-2.9 1.2-5 2.6-7.6 5-17.5 5.1-38.2.5-2.5-.6-9.4-1.7-15.5-2.5-23.7-3.2-22.7-2.9-21.9-8.9.6-3.8.3-4.5-2-6.3-2.4-2-2.5-2.1-.7-3.7 1-.9 2.1-1.3 2.5-.9 1.3 1.3-1.7-5.1-3.2-7-.9-.9-2-1.7-2.6-1.7-.6-.1-2.4-.7-4.1-1.4-2.8-1.2-2.6-1.3 3.7-1.2 3.8.1 6.8.5 6.8.9zm119-.3c0 .5-.4 1-1 1-.5 0-1-.5-1-1 0-.6.5-1 1-1 .6 0 1 .4 1 1zm-33 5c0 .5-.2 1-.4 1-.3 0-.8-.5-1.1-1-.3-.6-.1-1 .4-1 .6 0 1.1.4 1.1 1z"/><path d="M221.5 140c-.3.5.3 1 1.5 1s1.8-.5 1.5-1c-.3-.6-1-1-1.5-1s-1.2.4-1.5 1zM207.5 140.9c-.3.5-.1 1.2.5 1.6 1.2.7 3-.2 3-1.6 0-1.2-2.7-1.2-3.5 0zM232 143c0 .5.7 1 1.6 1 .8 0 1.2-.5.9-1-.3-.6-1-1-1.6-1-.5 0-.9.4-.9 1zM332 415c-2.5.4-4.1.8-3.6.8.5.1.1 1.2-1 2.4-1.8 2-1.8 2.1-.1 1.5 1-.4 2.4-.7 3-.7.7-.1 2.6-1.2 4.2-2.5 1.7-1.4 2.8-2.4 2.5-2.3-.3 0-2.5.4-5 .8zM320.8 421.7c.7.3 1.6.2 1.9-.1.4-.3-.2-.6-1.3-.5-1.1 0-1.4.3-.6.6zM117.3 57.2c-1.8 6.2-3.3 12-3.2 12.8 0 .8 1.6-3.7 3.5-10 1.8-6.3 3.3-12.1 3.1-12.8-.1-.8-1.7 3.7-3.4 10zM6.1 80.1c.1 9 .5 19.3.8 22.9.4 3.6.5-3.6.3-16-.3-12.4-.6-22.7-.8-22.9-.2-.2-.3 7-.3 16zM446.1 249.2c-.5 1.4-.3 4.6.6 8.3.8 3.3 1.5 9.4 1.6 13.5.1 4.1.6 7.8 1 8.1.5.3 1.4 3.8 2 7.7.7 3.9 1.6 7.4 2 7.8.4.4.2 1.3-.4 2.1-.6.7-.8 1.3-.5 1.3.4 0-.2 1.3-1.3 2.9-2.7 3.8-4.3 8.1-3.1 8.1.6 0 1-.9 1-2s1.3-3.4 2.9-5.2l2.9-3.2-.4 3.4c-.7 5.5-1.4 7.2-3.1 6.6-.8-.3 0 1.2 1.7 3.5l3.3 4-2.1 2.2c-1.4 1.5-1.9 3.1-1.6 5.2.3 2.5.3 2.6-.5 1-.7-1.4-1-1.5-1-.5 0 .8.4 2.2.9 3 .7 1.1 1 1.1 1 .2 0-.9 1-1.1 3.5-.6l3.5.6v-4.1c0-3-.4-4.1-1.5-4.1-1.9 0-1.9-1.9 0-4.4 1.2-1.5 1.4-7.8 1.5-34.8 0-22.4-.3-32.7-1-32.3-.6.4-2.4.8-4.1 1-1.7.3-4 .7-5.2 1.1-1.6.5-1.9.3-1.4-1 .4-.9.2-1.6-.4-1.6-.5 0-1.3 1-1.8 2.2zM458 310c0 .5-.4 1-1 1-.5 0-1-.5-1-1 0-.6.5-1 1-1 .6 0 1 .4 1 1zM419 262l-10.4 2.8-1.2 4.8c-.6 2.7-2.8 10.5-4.8 17.2-4.6 15.7-4.6 16.6-.3 15.7 1.7-.4 5.5-1.6 8.2-2.7 2.8-1.1 11.1-4.3 18.5-7.2l13.5-5.2-.1-4.4c0-4.9-2.4-13.1-5.7-19.8-2.5-5.1-3-5.1-17.7-1.2z"/><path d="M445.2 296.2c.6 1.8 2.8 2.1 2.8.4 0-.9-.7-1.6-1.6-1.6-.9 0-1.4.5-1.2 1.2zM391.7 296.7c-.4.3-.7 1.1-.7 1.7 0 .6.5.5 1.2-.2.6-.6.9-1.4.7-1.7-.3-.3-.9-.2-1.2.2zM372.5 304c.3.5 1.1 1 1.6 1 .6 0 .7-.5.4-1-.3-.6-1.1-1-1.6-1-.6 0-.7.4-.4 1zM419 306.5c0 1.4.2 2.5.4 2.5s.6-1.1.8-2.5c.3-1.4.1-2.5-.3-2.5-.5 0-.9 1.1-.9 2.5zM331.3 309.2c.2.7 1 1.3 1.7 1.3s1.5-.6 1.8-1.3c.2-.7-.5-1.2-1.8-1.2s-2 .5-1.7 1.2zM339.5 309c-.3.5.1 1 .9 1 .9 0 1.6-.5 1.6-1 0-.6-.4-1-.9-1-.6 0-1.3.4-1.6 1zM401.2 309.8c-1.3 1.3-1.8 2.8-1.5 4.6.6 3 1.1 3.1 4.1 1 2.5-1.7 2.9-4.6.8-6.3-1.2-1-1.9-.8-3.4.7zM442.5 323.7c-3.8 2-3.6 1.8-3 3.6.9 2.1 5.1 3 7.7 1.6 1.8-1 2.4-.8 3.5.7 1.6 2.2 1.6 1.7.2-2.4-.6-1.8-1.5-3-1.9-2.7-.4.3-1-.2-1.4-1-.7-1.9-1.3-1.8-5.1.2zM451.2 333.1c.5 1.5 4.5 2.7 7.1 2.1 3-.7 1.9-2.1-1.6-2-1.9.1-4-.2-4.7-.7-.8-.5-1.1-.3-.8.6zM457.7 351.2c-.2.7 0 2.1.5 3.1.5.9.6 2.2.3 2.7-.3.6-.1 1 .5 1s.8-1.4.6-3.6c-.5-4.1-1.2-5.2-1.9-3.2zM360.5 451.1c-.4.6-.4 1.3-.1 1.6.8.8 3.6-.5 3.6-1.7 0-1.3-2.7-1.3-3.5.1zM347 459c-1.2.8-1 1 .8 1 1.3 0 2-.4 1.7-1-.7-1.2-.6-1.2-2.5 0z"/></svg>